<svg xmlns="http://www.w3.org/2000/svg" width="20" height="16" viewBox="0 0 20 16" fill="none">
  <path d="M8.75311 10.4596C8.19157 10.4596 7.86263 10.1435 7.86263 9.57622V8.91978C5.5041 8.75768 3.1536 8.27144 0.714844 7.33941V6.00224C3.71515 7.33132 6.72348 7.80138 9.99655 7.80138C13.2777 7.80138 16.286 7.33132 19.2863 6.00224V7.33941C16.8475 8.27144 14.497 8.75768 12.1385 8.91978V9.57622C12.1385 10.1435 11.8095 10.4596 11.248 10.4596H8.75311ZM3.19371 15.8489H16.8074C18.468 15.8489 19.2863 15.0386 19.2863 13.3771V5.49167C19.2863 3.83028 18.468 3.01985 16.8074 3.01985H3.19371C1.54113 3.01985 0.714844 3.83028 0.714844 5.49167V13.3771C0.714844 15.0386 1.54113 15.8489 3.19371 15.8489ZM5.92929 3.72493H7.17273V2.29047C7.17273 1.67453 7.53373 1.32605 8.15946 1.32605H11.8417C12.4674 1.32605 12.8204 1.67453 12.8204 2.29047V3.70872H14.0638V2.37962C14.0638 0.856001 13.2696 0.142822 11.8176 0.142822H8.17548C6.80371 0.142822 5.92929 0.856001 5.92929 2.37962V3.72493Z" fill="#B3B3B3"/>
</svg>